{
  "accessors": [
    {
      "bufferView": 2,
      "componentType": 5126,
      "count": 3114,
      "max": [
        1.2185560464859009,
        2.1109139919281006,
        3.713222026824951
      ],
      "min": [
        -2.944441080093384,
        -2.2861409187316895,
        -2.625
      ],
      "type": "VEC3"
    },
    {
      "bufferView": 2,
      "byteOffset": 37368,
      "componentType": 5126,
      "count": 3114,
      "max": [
        1.0,
        1.0,
        1.0
      ],
      "min": [
        -1.0,
        -1.0,
        -1.0
      ],
      "type": "VEC3"
    },
    {
      "bufferView": 3,
      "componentType": 5126,
      "count": 3114,
      "max": [
        1.0,
        1.0,
        1.0,
        1.0
      ],
      "min": [
        -1.0,
        -1.0,
        -1.0,
        -1.0
      ],
      "type": "VEC4"
    },
    {
      "bufferView": 1,
      "componentType": 5126,
      "count": 3114,
      "max": [
        0.9991099834442139,
        0.998691976070404
      ],
      "min": [
        0.005299000069499016,
        0.0033019999973475933
      ],
      "type": "VEC2"
    },
    {
      "bufferView": 0,
      "componentType": 5125,
      "count": 10002,
      "type": "SCALAR"
    },
    {
      "bufferView": 2,
      "byteOffset": 74736,
      "componentType": 5126,
      "count": 58,
      "max": [
        0.8713870048522949,
        1.385382056236267,
        3.7338380813598633
      ],
      "min": [
        -2.7866199016571045,
        -2.0534720420837402,
        -1.3918230533599854
      ],
      "type": "VEC3"
    },
    {
      "bufferView": 2,
      "byteOffset": 75432,
      "componentType": 5126,
      "count": 58,
      "max": [
        0.7366630434989929,
        0.7366654276847839,
        1.0
      ],
      "min": [
        -1.0,
        -0.7366667985916138,
        -0.0
      ],
      "type": "VEC3"
    },
    {
      "bufferView": 1,
      "byteOffset": 24912,
      "componentType": 5126,
      "count": 58,
      "max": [
        0.9929760098457336,
        0.9952430129051208
      ],
      "min": [
        0.005956000182777643,
        0.008224000222980976
      ],
      "type": "VEC2"
    },
    {
      "bufferView": 0,
      "byteOffset": 40008,
      "componentType": 5125,
      "count": 168,
      "type": "SCALAR"
    }
  ],
  "asset": {
    "extras": {
      "author": "sixpence (https://sketchfab.com/sixpence)",
      "license": "CC-BY-4.0 (http://creativecommons.org/licenses/by/4.0/)",
      "source": "https://sketchfab.com/3d-models/washing-machine-4949ac257c7848c7a6c9149218ecfaae",
      "title": "Washing Machine"
    },
    "generator": "Sketchfab-12.65.0",
    "version": "2.0"
  },
  "bufferViews": [
    {
      "buffer": 0,
      "byteLength": 40680,
      "name": "floatBufferViews",
      "target": 34963
    },
    {
      "buffer": 0,
      "byteLength": 25376,
      "byteOffset": 40680,
      "byteStride": 8,
      "name": "floatBufferViews",
      "target": 34962
    },
    {
      "buffer": 0,
      "byteLength": 76128,
      "byteOffset": 66056,
      "byteStride": 12,
      "name": "floatBufferViews",
      "target": 34962
    },
    {
      "buffer": 0,
      "byteLength": 49824,
      "byteOffset": 142184,
      "byteStride": 16,
      "name": "floatBufferViews",
      "target": 34962
    }
  ],
  "buffers": [
    {
      "byteLength": 192008,
      "uri": "scene.bin"
    }
  ],
  "extensionsUsed": [
    "KHR_materials_transmission"
  ],
  "images": [
    {
      "uri": "textures/Washing_machine_AO_surfaceShader1SG_polySurface85SG_baseColor.png"
    },
    {
      "uri": "textures/Washing_machine_AO_surfaceShader1SG_polySurface85SG_metallicRoughness.png"
    },
    {
      "uri": "textures/Washing_machine_AO_surfaceShader1SG_polySurface85SG_normal.png"
    },
    {
      "uri": "textures/initialShadingGroup_baseColor.png"
    },
    {
      "uri": "textures/initialShadingGroup_metallicRoughness.png"
    },
    {
      "uri": "textures/initialShadingGroup_transmission.png"
    }
  ],
  "materials": [
    {
      "doubleSided": true,
      "name": "Washing_machine_AO_surfaceShader1SG_polySurface85SG",
      "normalTexture": {
        "index": 2
      },
      "occlusionTexture": {
        "index": 1
      },
      "pbrMetallicRoughness": {
        "baseColorTexture": {
          "index": 0
        },
        "metallicFactor": 0.0,
        "metallicRoughnessTexture": {
          "index": 1
        },
        "roughnessFactor": 0.6724466463414634
      }
    },
    {
      "alphaMode": "BLEND",
      "doubleSided": true,
      "extensions": {
        "KHR_materials_transmission": {
          "transmissionFactor": 1.0,
          "transmissionTexture": {
            "index": 5
          }
        }
      },
      "name": "initialShadingGroup",
      "pbrMetallicRoughness": {
        "baseColorFactor": [
          0.35260612693710275,
          0.35260612693710275,
          0.35260612693710275,
          1.0
        ],
        "baseColorTexture": {
          "index": 3
        },
        "metallicFactor": 0.0,
        "metallicRoughnessTexture": {
          "index": 4
        }
      }
    }
  ],
  "meshes": [
    {
      "name": "Object_0",
      "primitives": [
        {
          "attributes": {
            "NORMAL": 1,
            "POSITION": 0,
            "TANGENT": 2,
            "TEXCOORD_0": 3
          },
          "indices": 4,
          "material": 0,
          "mode": 4
        }
      ]
    },
    {
      "name": "Object_1",
      "primitives": [
        {
          "attributes": {
            "NORMAL": 6,
            "POSITION": 5,
            "TEXCOORD_0": 7
          },
          "indices": 8,
          "material": 1,
          "mode": 4
        }
      ]
    }
  ],
  "nodes": [
    {
      "children": [
        1
      ],
      "matrix": [
        1.0,
        0.0,
        0.0,
        0.0,
        0.0,
        2.220446049250313e-16,
        -1.0,
        0.0,
        0.0,
        1.0,
        2.220446049250313e-16,
        0.0,
        0.0,
        0.0,
        0.0,
        1.0
      ],
      "name": "Sketchfab_model"
    },
    {
      "children": [
        2,
        3
      ],
      "name": "e6cfbfc9217b4198bfd73a1b7b11ef22.obj.cleaner.materialmerger.gles"
    },
    {
      "mesh": 0,
      "name": "Object_2"
    },
    {
      "mesh": 1,
      "name": "Object_3"
    }
  ],
  "samplers": [
    {
      "magFilter": 9729,
      "minFilter": 9987,
      "wrapS": 10497,
      "wrapT": 10497
    }
  ],
  "scene": 0,
  "scenes": [
    {
      "name": "Sketchfab_Scene",
      "nodes": [
        0
      ]
    }
  ],
  "textures": [
    {
      "sampler": 0,
      "source": 0
    },
    {
      "sampler": 0,
      "source": 1
    },
    {
      "sampler": 0,
      "source": 2
    },
    {
      "sampler": 0,
      "source": 3
    },
    {
      "sampler": 0,
      "source": 4
    },
    {
      "sampler": 0,
      "source": 5
    }
  ]
}
